# generated from PmQm by Jehee Lee
:FULLY-SPECIFIED
:DEGREES
392
root 39.03662664 39.3275 -87.96321786 -177.16681 51.53568775 -174.1883695
RightUpLeg -6.896829328 2.402204815 11.94505704
RightLeg 17.76905443 0 0
RightFoot -11.51137967 22.02041715 -12.83136195
RightToes 2.32829e-010 -1.59028e-015 9.93923e-017
Spine -7.50674 3.43618 11.2677
Spine1 13.3803 4.13737 -3.40054
HEad -7.70232 -4.95186 1.66868
LeftShoulder1 9.93923e-017 0 1.22299e-017
LeftArm 9.94681 53.4464 -71.1492
LeftForeArm -17.9221 -13.2168 -3.49391
LeftHand 1.0069 7.19274 -7.40753
RightShoulder 1.98785e-016 -4.96962e-017 1.55301e-017
RightArm 21.8119 -28.0745 84.0461
RightForeArm -46.3925 27.0863 -24.6167
RightHand 1.13036 -10.0345 -6.34538
LeftUpLeg -22.3178321 -1.997321686 5.0476439
LeftLeg 34.94203824 -5.298995401 3.493195812
LeftFoot 4.578949158 4.675257419 -14.42148301
LeftToes 8.82235e-011 9.04645e-011 1.87288e-011
393
root 40.17394979 39.2265 -88.86921636 -176.9461498 53.10303463 -173.615725
RightUpLeg -4.192027368 1.626765631 11.98428337
RightLeg 18.16342905 0 0
RightFoot -14.38642078 23.63522177 -13.75146479
RightToes 2.32829e-010 -1.59028e-015 9.93923e-017
Spine -7.51407 3.94656 12.4929
Spine1 13.8214 4.73415 -4.4139
HEad -8.20261 -4.98025 1.35199
LeftShoulder1 9.93923e-017 0 1.22299e-017
LeftArm 7.05531 54.8469 -68.866
LeftForeArm -15.3483 -12.2028 -3.69852
LeftHand 0.989239 6.97426 -6.78467
RightShoulder 1.98785e-016 -4.96962e-017 1.55301e-017
RightArm 20.9799 -24.6445 83.1853
RightForeArm -44.7933 28.7058 -25.8324
RightHand 1.16563 -10.225 -6.54391
LeftUpLeg -23.42783652 -0.8420481572 4.574312926
LeftLeg 24.90455597 -5.632812385 2.128900543
LeftFoot 5.808603146 4.294667255 -13.03249877
LeftToes 8.82235e-011 9.04645e-011 1.87288e-011
394
root 41.32756459 39.1368 -89.79840191 -176.5340008 54.32564953 -173.1805412
RightUpLeg -1.628434834 1.069743808 11.7988763
RightLeg 18.16626799 0 0
RightFoot -16.79568029 25.07486947 -14.66406471
RightToes 2.32829e-010 -1.59028e-015 9.93923e-017
Spine -8.09685 4.28993 13.4388
Spine1 14.4793 5.16981 -5.55563
HEad -8.53831 -5.02505 1.2513
LeftShoulder1 9.93923e-017 0 1.22299e-017
LeftArm 3.03309 55.6042 -66.8765
LeftForeArm -11.7008 -10.2295 -4.35487
LeftHand 0.964956 6.70599 -5.97777
RightShoulder 1.98785e-016 -4.96962e-017 1.55301e-017
RightArm 20.1872 -21.9817 82.6238
RightForeArm -44.228 29.6533 -26.5435
RightHand 1.17304 -10.2993 -6.4314
LeftUpLeg -23.70597204 -0.9079394723 3.973364551
LeftLeg 13.47870418 -5.574708027 1.205747153
LeftFoot 7.335531978 3.672111468 -10.85819994
LeftToes 8.82235e-011 9.04645e-011 1.87288e-011
395
root 42.50362092 39.0155 -90.7729742 -175.26024 55.76231543 -172.5516819
RightUpLeg 0.07411928706 0.7369474076 11.4891282
RightLeg 18.52271152 0 0
RightFoot -19.36764738 26.60851713 -15.73848491
RightToes 2.32829e-010 -1.59028e-015 9.93923e-017
Spine -9.55206 4.83757 14.5931
Spine1 15.3412 5.80493 -6.97747
HEad -8.71883 -5.13068 1.30073
LeftShoulder1 9.93923e-017 0 1.22299e-017
LeftArm -0.365423 55.8509 -65.2931
LeftForeArm -9.19698 -8.25998 -4.8776
LeftHand 0.973909 6.82217 -5.55341
RightShoulder 1.98785e-016 -4.96962e-017 1.55301e-017
RightArm 19.5693 -20.2135 82.2798
RightForeArm -44.1874 29.9719 -26.7769
RightHand 1.14635 -10.1704 -6.21836
LeftUpLeg -24.49861547 -0.6102690774 3.182995782
LeftLeg 3.459466234 -5.25030443 0.8619634689
LeftFoot 7.255337872 2.90152079 -9.765909891
LeftToes 8.82235e-011 9.04645e-011 1.87288e-011
396
root 43.7211927 38.7936 -91.82791339 -173.183282 57.35586037 -171.4336651
RightUpLeg 0.9421595074 0.399701422 11.03455429
RightLeg 20.01300388 0 0
RightFoot -22.08096643 28.38380323 -16.61845185
RightToes 2.32829e-010 -1.59028e-015 9.93923e-017
Spine -11.2292 5.50976 16.0989
Spine1 16.0748 6.49691 -8.38122
HEad -8.96868 -5.25482 1.45882
LeftShoulder1 9.93923e-017 0 1.22299e-017
LeftArm -3.43556 55.6358 -64.3967
LeftForeArm -7.41591 -6.44362 -5.20002
LeftHand 1.00257 7.13443 -5.52391
RightShoulder 1.98785e-016 -4.96962e-017 1.55301e-017
RightArm 19.2962 -19.3455 82.2059
RightForeArm -44.2739 29.6849 -26.5628
RightHand 1.13498 -10.1113 -6.14149
LeftUpLeg -27.01901183 -0.7096819154 3.015412857
LeftLeg -0.2218092783 -3.222617232 0.4439781657
LeftFoot 4.574013768 2.156089395 -10.44576335
LeftToes 8.82235e-011 9.04645e-011 1.87288e-011
397
root 44.96812529 38.606 -92.89484457 -172.1082336 58.65262107 -171.2275154
RightUpLeg 1.898668649 -0.003441401819 9.83837049
RightLeg 21.75387684 0 0
RightFoot -23.55823368 30.38231701 -16.95964241
RightToes 2.32829e-010 -1.59028e-015 9.93923e-017
Spine -12.1546 5.85722 16.6885
Spine1 16.4674 7.00495 -9.47714
HEad -9.44381 -5.42776 1.65421
LeftShoulder1 9.93923e-017 0 1.22299e-017
LeftArm -6.6077 55.0293 -64.3725
LeftForeArm -5.50597 -4.71902 -5.34881
LeftHand 1.0012 7.1207 -5.41116
RightShoulder 1.98785e-016 -4.96962e-017 1.55301e-017
RightArm 19.1526 -19.652 82.4421
RightForeArm -44.4089 28.9425 -26.0225
RightHand 1.15452 -10.207 -6.29791
LeftUpLeg -28.86597874 -1.113775428 2.349631852
LeftLeg 0.2317592167 -1.170402507 0.04163697014
LeftFoot 2.232823789 1.498991559 -10.71500443
LeftToes 8.82235e-011 9.04645e-011 1.87288e-011
398
root 46.46787289 38.4781 -93.70936997 -172.6214405 60.30843061 -172.3991711
RightUpLeg 3.379870593 -0.9080326185 8.038874278
RightLeg 23.4840511 0 0
RightFoot -24.23904754 33.08781379 -18.10852633
RightToes 2.32829e-010 -1.59028e-015 9.93923e-017
Spine -12.4809 6.07 16.131
Spine1 16.6758 7.5605 -10.1947
HEad -9.91584 -5.61014 1.72987
LeftShoulder1 9.93923e-017 0 1.22299e-017
LeftArm -9.17442 54.3413 -65.0809
LeftForeArm -4.28792 -3.67452 -5.31467
LeftHand 0.976454 6.86272 -5.07199
RightShoulder 1.98785e-016 -4.96962e-017 1.55301e-017
RightArm 19.3593 -21.2995 82.9588
RightForeArm -44.8823 27.7921 -25.1879
RightHand 1.1632 -10.207 -6.55283
LeftUpLeg -28.79077712 -2.018903385 1.230390359
LeftLeg 2.102161624 0 0
LeftFoot 2.660824816 0.7438501823 -8.145149146
LeftToes 8.82235e-011 9.04645e-011 1.87288e-011
399
root 48.07537168 38.3992 -94.55681142 -174.3055032 62.8972561 -174.8903376
RightUpLeg 4.536800701 -2.664983038 4.69958043
RightLeg 26.06333668 0 0
RightFoot -24.72960873 37.29573018 -20.00118712
RightToes 2.32829e-010 -1.59028e-015 9.93923e-017
Spine -12.9619 6.48979 14.6785
Spine1 16.9032 8.37685 -10.7635
HEad -9.95357 -5.53207 1.71529
LeftShoulder1 9.93923e-017 0 1.22299e-017
LeftArm -10.4968 54.0093 -66.1619
LeftForeArm -4.69278 -3.83271 -5.16164
LeftHand 0.972732 6.82958 -4.8704
RightShoulder 1.98785e-016 -4.96962e-017 1.55301e-017
RightArm 21.128 -23.8806 83.8761
RightForeArm -46.265 25.967 -23.8724
RightHand 1.1413 -10.0446 -6.63461
LeftUpLeg -28.52071268 -2.724067286 0.8777128025
LeftLeg 6.016086126 0 0
LeftFoot 4.995869318 1.781285126 -3.603827532
LeftToes 8.82235e-011 9.04645e-011 1.87288e-011
400
root 49.59722476 38.41137577 -95.48009988 -178.2870616 64.13615505 -179.5449359
RightUpLeg 3.912571722 -4.676718936 1.238971953
RightLeg 30.92373855 0 0
RightFoot -17.85645026 37.727028 -23.31587221
RightToes 2.32829e-010 -1.59028e-015 9.93923e-017
Spine -12.66719625 5.540481784 10.99942851
Spine1 15.9615952 7.528856474 -10.68229244
HEad -9.20112049 -5.217998903 2.316593388
LeftShoulder1 9.93923e-017 0 1.22299e-017
LeftArm -11.70516909 52.82736869 -67.28620872
LeftForeArm -5.529452188 -3.703602121 -5.188081799
LeftHand 1.02661 7.3694 -4.41701
RightShoulder 1.98785e-016 -4.96962e-017 1.55301e-017
RightArm 25.11560053 -27.33790153 85.93115987
RightForeArm -48.41120236 24.4836114 -22.94891294
RightHand 1.19146 -10.4042 -6.50393
LeftUpLeg -28.02153474 -2.766425819 -0.498624014
LeftLeg 10.74793565 0 0
LeftFoot 4.296571584 2.52441374 -3.024963023
LeftToes 8.82235e-011 9.04645e-011 1.87288e-011
401
root 50.97973374 38.40759866 -96.30870763 177.688821 64.34067398 175.8657627
RightUpLeg 0.8925135855 -5.159742499 -1.677099414
RightLeg 39.68264819 0 0
RightFoot -8.046000363 34.15963152 -29.12992517
RightToes 2.32829e-010 -1.59028e-015 9.93923e-017
Spine -10.80497685 3.879197811 6.711755758
Spine1 14.21047052 5.898573178 -10.27596106
HEad -9.356503806 -4.691262502 2.837931317
LeftShoulder1 9.93923e-017 0 1.22299e-017
LeftArm -11.25042111 49.76714594 -68.94589826
LeftForeArm -6.340785174 -3.82537775 -5.561190529
LeftHand 1.0097 7.20765 -5.05441
RightShoulder 1.98785e-016 -4.96962e-017 1.55301e-017
RightArm 28.6562778 -30.59627422 88.18877302
RightForeArm -51.86194915 22.11632745 -20.82756746
RightHand 1.16096 -10.3732 -5.78301
LeftUpLeg -27.32956121 -2.656432375 -1.934772003
LeftLeg 16.27694285 0 0
LeftFoot 0.6804389406 1.165196048 -2.426322305
LeftToes 8.82235e-011 9.04645e-011 1.87288e-011
402
root 52.24107306 38.40860858 -97.03911116 174.2231897 64.99828666 172.0368859
RightUpLeg -5.109586257 -3.784570471 -3.620479248
RightLeg 49.77277708 -3.05815506 -5.778436454
RightFoot 4.751471547 38.32711621 -18.57223092
RightToes 2.32829e-010 -1.59028e-015 9.93923e-017
Spine -8.615737823 2.739157942 2.825787768
Spine1 13.05120699 4.637527439 -9.763503017
HEad -10.24917151 -4.023258346 2.809232198
LeftShoulder1 9.93923e-017 0 1.22299e-017
LeftArm -9.244655508 44.94620471 -71.2246392
LeftForeArm -7.754399472 -4.268921786 -6.17987125
LeftHand 0.992905 7.03592 -5.03757
RightShoulder 1.98785e-016 -4.96962e-017 1.55301e-017
RightArm 26.74857932 -33.49647376 89.80611261
RightForeArm -50.5587284 20.74354785 -16.03337121
RightHand 1.09086 -10.2491 -4.27313
LeftUpLeg -26.20862993 -2.652946746 -2.527394181
LeftLeg 21.40715111 0 0
LeftFoot -3.398084766 0.2040630191 -2.169233003
LeftToes 8.82235e-011 9.04645e-011 1.87288e-011
403
root 53.51296804 38.53700323 -97.74384774 171.6694589 66.49655014 169.3984658
RightUpLeg -9.776612388 -1.64973458 -4.384213167
RightLeg 57.55849772 -4.395184589 -11.17027284
RightFoot 10.97453826 36.10876513 -11.64539626
RightToes 2.32829e-010 -1.59028e-015 9.93923e-017
Spine -7.156561866 2.192774118 -0.3495186524
Spine1 12.58159011 3.779607961 -8.859403652
HEad -10.95362685 -3.058958446 2.324656645
LeftShoulder1 9.93923e-017 0 1.22299e-017
LeftArm -6.599681884 39.93016714 -73.60455984
LeftForeArm -10.45827374 -5.325537262 -6.581468644
LeftHand 0.970123 6.82072 -4.29005
RightShoulder 1.98785e-016 -4.96962e-017 1.55301e-017
RightArm 20.68931634 -36.20283342 90.30526425
RightForeArm -43.36041459 19.73561349 -9.223474288
RightHand 1.03939 -10.2002 -2.94224
LeftUpLeg -24.07245034 -2.72674827 -2.437115089
LeftLeg 24.46400328 0 0
LeftFoot -6.061114807 0.4568576027 -2.640488246
LeftToes 8.82235e-011 9.04645e-011 1.87288e-011
404
root 54.89409463 38.80596671 -98.4882888 171.1526875 67.75148573 169.1036483
RightUpLeg -13.87724637 -0.4568802592 -3.997666535
RightLeg 62.08109618 -3.639044208 -13.92789719
RightFoot 10.24715146 32.5868373 -8.105055267
RightToes 2.32829e-010 -1.59028e-015 9.93923e-017
Spine -6.580303668 1.426715935 -2.500291036
Spine1 12.02732856 2.53177302 -7.099113957
HEad -10.67315642 -1.707370066 1.845580681
LeftShoulder1 9.93923e-017 0 1.22299e-017
LeftArm -3.809392417 36.06141893 -75.4896582
LeftForeArm -14.22375103 -8.752497789 -5.514277912
LeftHand 0.942205 6.57551 -3.70458
RightShoulder 1.98785e-016 -4.96962e-017 1.55301e-017
RightArm 18.87628383 -39.36248856 90.13882366
RightForeArm -38.50217185 18.41094486 -4.684044826
RightHand 1.03827 -10.3208 -2.49664
LeftUpLeg -20.77638953 -2.496026158 -1.915566437
LeftLeg 25.1235129 0 0
LeftFoot -7.779552983 0.4125801292 -3.410600824
LeftToes 8.82235e-011 9.04645e-011 1.87288e-011
